<svg xmlns="http://www.w3.org/2000/svg" xml:space="preserve" id="_x2014_ÎÓÈ_x5F_1" x="0" y="0" style="enable-background:new 0 0 3000 2000" version="1.1" viewBox="0 0 3000 2000"><style>.st0{fill:#fff}.st1{fill:#dde7fe}.st2{fill:#bdd1f9}.st3{fill:#7c9af2}.st4{fill:#91b5f8}.st5{fill:#060633}.st6{fill:#e8534f}.st7{fill:#fb9391}.st8{fill:#0b0755}</style><path d="M0 0h3000v2000H0z" class="st0"/><path d="M2371.5 1728.3c214.2 3.9 348.6-219.7 348.3-357.1-.2-148.5-92.1-280.7-146.2-419.2-47.9-122.7-30.3-262.1-104.3-377.9-89.9-140.9-292.1-182.3-464.1-231.9-222.4-64.2-456.6-120.8-696.6-99-169.1 15.3-334.9 71.2-453.2 168.1-93.1 76.2-152.2 172.3-219.7 262.7-69.9 93.5-160.2 155.3-247.2 235.9-243.8 225.5-33.5 631.6 211.7 799-.1-.1 1770.6 19.4 1771.3 19.4z" class="st1"/><path d="M1949.9 1251c-.1 0-.2-.1-.3-.2-.9-.6-1.1-1.8-.5-2.6 153.4-225.2 276.9-379.3 347.9-434 1.6-1.2 2.7-2.1 3.2-2.6.7-.7 1.9-.7 2.7 0 .7.7.7 1.9 0 2.7-.6.6-1.7 1.5-3.5 2.9-70.6 54.5-193.9 208.3-347 433.2-.7.7-1.6 1-2.5.6z" class="st2"/><path d="M2335 812.2c-8.3 6-41.9 11.3-43.6 9-1.7-2.4 13.5-32.8 21.7-38.9 8.3-6 19.9-4.3 25.9 4 6.1 8.2 4.3 19.8-4 25.9zM2271.3 818.4c-.1 10.5-16.6 41.2-19.6 41.2s-18.5-31.2-18.4-41.7c.1-10.5 8.8-18.8 19.2-18.7 10.6.1 19 8.7 18.8 19.2z" class="st2"/><path d="M2287.9 886.4c-10.2-2.5-36.4-25.4-35.7-28.3.7-2.9 34.6-11 44.8-8.5 10.2 2.5 16.4 12.8 13.9 23-2.5 10.1-12.8 16.3-23 13.8zM2133.8 956.3c1.6 17.5-20.2 71.8-25.2 72.2-5 .5-36.6-48.8-38.2-66.3-1.6-17.5 11.2-33 28.7-34.7 17.5-1.6 33.1 11.3 34.7 28.8z" class="st2"/><path d="M2173.9 1066.8c-17.4-2.3-65.4-35.8-64.7-40.8.7-5 55.7-24.6 73.2-22.3 17.4 2.3 29.7 18.4 27.3 35.8-2.4 17.4-18.4 29.7-35.8 27.3zM2070.6 1004.7c6.7 20.5-4.8 91.1-10.6 93-5.8 1.9-56.8-48.3-63.5-68.8-6.7-20.5 4.5-42.5 24.9-49.1 20.5-6.7 42.5 4.4 49.2 24.9z" class="st2"/><path d="M2131.3 1152c-20.9-5-75.1-51.8-73.6-57.8 1.4-6 70.9-23 91.9-17.9 20.9 5 33.8 26.1 28.8 47-5.2 20.9-26.2 33.8-47.1 28.7zM2017.9 1077.3c6.7 20.5-4.8 91.1-10.6 93-5.8 1.9-56.8-48.3-63.5-68.8-6.7-20.5 4.5-42.5 24.9-49.1 20.6-6.7 42.6 4.4 49.2 24.9z" class="st2"/><path d="M2078.6 1224.6c-20.9-5-75.1-51.8-73.6-57.8 1.4-6 70.9-23 91.9-17.9 20.9 5 33.8 26.1 28.8 47-5.1 20.9-26.1 33.8-47.1 28.7zM1926.6 1160.6c14 16.4 30.3 86 25.6 90-4.7 4-70.9-23.1-84.9-39.4-14-16.4-12-41 4.3-54.9 16.4-14.1 41-12.1 55 4.3z" class="st2"/><path d="M2029.4 1297.3c-21.4-2.4-80.9-42.1-80.3-48.2.7-6.1 67.5-31.7 88.9-29.3 21.4 2.4 36.8 21.7 34.4 43-2.3 21.5-21.6 36.9-43 34.5zM2228.8 861.4c-.2 10.6-16.8 41.9-19.9 41.8-3 0-18.8-31.7-18.7-42.4.2-10.6 8.9-19.1 19.5-19 10.7.2 19.2 8.9 19.1 19.6z" class="st2"/><path d="M2244.1 930.7c-10.3-2.5-37-25.8-36.3-28.8.7-2.9 35.1-11.2 45.5-8.7 10.3 2.5 16.7 13 14.1 23.3-2.5 10.5-12.9 16.8-23.3 14.2zM2183.6 899.6c1 15.1-19 61.2-23.3 61.5-4.3.3-30.3-42.7-31.4-57.8-1-15.1 10.4-28.2 25.5-29.2s28.2 10.4 29.2 25.5z" class="st2"/><path d="M2212 1000.2c-14.7-3.6-52.6-36.7-51.5-40.9 1-4.2 49.9-15.9 64.6-12.3 14.7 3.6 23.7 18.4 20 33.1-3.6 14.7-18.4 23.7-33.1 20.1zM907.2 1394.3l.3-.3c.7-.8.6-2-.2-2.7-209.7-182.3-371.6-302.4-455.8-338-1.9-.8-3.2-1.4-3.8-1.7-.9-.5-2.1-.2-2.6.7-.5.9-.2 2.1.7 2.6.8.5 2.1 1 4.2 1.9 83.8 35.4 245.3 155.2 454.8 337.3.7.8 1.7.8 2.4.2z" class="st2"/><path d="M413.4 1061.2c9.7 3.8 44.3.3 45.4-2.5 1.1-2.8-21.8-28.9-31.5-32.7-9.7-3.8-20.7 1-24.5 10.7-3.9 9.7.9 20.7 10.6 24.5zM477.9 1050.8c2.9 10.3 27 36.4 30 35.5 2.9-.8 10.2-35.6 7.3-45.9-2.9-10.3-13.5-16.3-23.8-13.5s-16.4 13.6-13.5 23.9z" class="st2"/><path d="M479.1 1122.3c9.4-5.1 29.3-34.5 27.9-37.2s-37-1.9-46.4 3.2c-9.4 5.1-12.9 16.9-7.7 26.2 5.1 9.4 16.9 12.9 26.2 7.8zM649.3 1151.2c2.9 17.7 38.5 65.6 43.6 64.7 5.1-.8 23.4-57.6 20.5-75.3-2.9-17.7-19.6-29.7-37.3-26.8-17.7 3-29.7 19.7-26.8 37.4z" class="st2"/><path d="M638.5 1270.7c16.6-6.8 55.2-52.3 53.2-57-1.9-4.7-61.4-9.9-78-3-16.6 6.8-24.5 25.8-17.7 42.4 6.9 16.5 25.9 24.4 42.5 17.6zM724.3 1182.6c-1.3 21.9 28.3 88.6 34.6 89 6.3.4 43.5-62.4 44.8-84.3 1.3-21.9-15.4-40.7-37.4-42-21.9-1.4-40.7 15.4-42 37.3z" class="st2"/><path d="M702.6 1343.7c19.3-10.4 60.6-70.6 57.6-76.1s-76-4.3-95.3 6.1c-19.3 10.4-26.6 34.5-16.2 53.8 10.5 19.3 34.6 26.6 53.9 16.2zM795 1240.6c-1.3 21.9 28.3 88.6 34.6 89 6.3.4 43.5-62.4 44.8-84.3 1.3-21.9-15.4-40.7-37.4-42-21.9-1.4-40.7 15.3-42 37.3z" class="st2"/><path d="M773.4 1401.7c19.3-10.4 60.6-70.6 57.6-76.1s-76-4.3-95.3 6.1c-19.3 10.4-26.6 34.5-16.2 53.8 10.4 19.3 34.5 26.5 53.9 16.2zM906.8 1299c-9.5 19.8-7.6 92.7-1.9 95.5 5.6 2.7 64-41.2 73.5-60.9 9.5-19.8 1.2-43.5-18.5-53.1-19.8-9.6-43.6-1.3-53.1 18.5z" class="st2"/><path d="M840.8 1460.6c20.5-7.9 69-62.5 66.7-68.3-2.3-5.8-74.8-13.7-95.3-5.8-20.5 7.9-30.7 30.9-22.8 51.4 7.9 20.4 30.9 30.6 51.4 22.7zM531.1 1082.2c2.9 10.5 27.5 36.9 30.5 36.1 3-.8 10.3-36.2 7.4-46.6-2.9-10.5-13.7-16.6-24.2-13.7-10.5 2.9-16.7 13.7-13.7 24.2z" class="st2"/><path d="M533.9 1154.6c9.5-5.2 29.8-35.1 28.3-37.8-1.5-2.7-37.6-1.9-47.1 3.3-9.5 5.2-13.1 17.1-7.9 26.7s17.1 13 26.7 7.8zM585.5 1108.2c2.9 15.2 34.6 55.5 38.9 54.7 4.3-.8 18.9-50 16-65.2-2.9-15.2-17.5-25.1-32.7-22.2-15.2 2.9-25.1 17.5-22.2 32.7z" class="st2"/><path d="M583.6 1214.8c13.5-7.4 42.3-49.8 40.2-53.7-2.1-3.9-53.4-2.7-66.9 4.6-13.5 7.4-18.6 24.3-11.2 37.9s24.4 18.6 37.9 11.2z" class="st2"/><path d="M1123.5 1521.7s197.2-252.9-289.1-516c.1 0-65.2 565.7 289.1 516z" class="st3"/><path d="m833.9 1004.7 308.6 481.3c34.4-78 69.8-276.5-308.6-481.3z" class="st4"/><path d="M1129.4 1466.6c.2 0 .4 0 .6-.1.4-.3.6-.9.3-1.3l-295.5-461c-.3-.4-.9-.6-1.3-.3s-.6.9-.3 1.3l295.5 461c.1.2.4.4.7.4z" class="st5"/><path d="M988.1 1246.3c.5.1.9-.2 1-.7.1-.5-.2-1-.7-1.1l-146.8-39.9c-.5-.2-1 .2-1.1.7-.1.5.2 1 .7 1.1l146.8 39.9h.1zM1051.4 1345h.2c.5 0 .9-.5.9-1l-10.2-149c0-.5-.5-.9-1-.9s-.9.5-.9 1l10.2 149c0 .5.4.9.8.9z" class="st5"/><path d="M1104.9 1572.7s-56.5-345.7-628.1-150.9c0 0 405.2 471.9 628.1 150.9z" class="st4"/><path d="m476.8 1421.8 628.1 150.9s-165.2 338.4-628.1-150.9z" class="st3"/><path d="M641.6 1524.9h.3l145.5-32.2c1.1-.2 1.8-1.3 1.6-2.4-.2-1.1-1.3-1.8-2.4-1.6L641 1520.9c-1.1.2-1.8 1.3-1.6 2.4.3 1 1.2 1.7 2.2 1.6zM850.6 1620.3c.2 0 .3 0 .5-.1l187.4-61.7c1.1-.4 1.7-1.5 1.3-2.6-.4-1.1-1.5-1.7-2.6-1.3l-187.4 61.7c-1.1.4-1.7 1.5-1.3 2.6.3 1 1.2 1.5 2.1 1.4z" class="st4"/><path d="M1880.9 1437s-56.2-361.4 574.5-353.7c0 0-249 600-574.5 353.7z" class="st3"/><path d="m2456.5 1082.6-574.6 308.3c9-96.8 83.9-314.3 574.6-308.3z" class="st4"/><path d="M1905.7 1378.9c-.2-.1-.4-.3-.5-.5-.3-.5-.1-1.2.4-1.4l550.4-295.3c.5-.3 1.2-.1 1.4.4.3.5.1 1.2-.4 1.4l-550.4 295.3c-.3.2-.6.2-.9.1z" class="st5"/><path d="M2168.8 1237.8c-.5-.2-.8-.7-.6-1.2.1-.6.7-.9 1.3-.8l168.4 41.7c.6.1.9.7.8 1.3-.1.6-.7.9-1.3.8l-168.4-41.7c-.1-.1-.2-.1-.2-.1zM2050.9 1301c-.1 0-.1-.1-.2-.1-.5-.3-.6-1-.3-1.5l92.8-142.8c.3-.5 1-.6 1.5-.3s.6 1 .3 1.5l-92.8 142.8c-.3.4-.9.6-1.3.4z" class="st5"/><path d="M1761.6 1601.3s42.6-301.4 542.8-142.9c.1 0-343.1 417.6-542.8 142.9z" class="st4"/><path d="m2304.5 1458.4-542.8 142.9c-.1 0 149.9 290.9 542.8-142.9z" class="st3"/><path d="M2163.2 1551.1h-.2l-127-25.2c-1-.2-1.6-1.1-1.4-2.1.2-1 1.1-1.6 2.1-1.4l127 25.2c1 .2 1.6 1.1 1.4 2.1-.2.8-1 1.4-1.9 1.4zM1983.5 1637.9c-.1 0-.3 0-.4-.1l-163.9-50.1c-.9-.3-1.5-1.3-1.2-2.2.3-.9 1.3-1.5 2.2-1.2l163.9 50.1c.9.3 1.5 1.3 1.2 2.2-.2.8-1 1.3-1.8 1.3z" class="st4"/><path d="m1229.1 624-2.1-4.8c-4.1-9.1-8.7-17.8-13.8-26.2-9.8-16.1-21.5-30.9-35-44.4-21.8-21.8-47.2-38.9-75.5-50.9-28.9-12.2-59.6-18.5-91.2-18.6h-2.4c-31.6.2-62.3 6.4-91.2 18.6-28.3 12-53.7 29.1-75.4 50.9-12.4 12.4-23.3 26-32.6 40.5-5.3 8.3-10.1 17-14.3 26-1.4 3-2.7 5.9-4 9-12.4 29.3-18.7 60.4-18.7 92.4 0 32 6.3 63.1 18.7 92.4 1.5 3.6 3.1 7.1 4.8 10.6 4.3 8.9 9.1 17.6 14.5 25.9 9 14 19.6 27 31.5 39 21.8 21.8 47.2 38.9 75.4 50.9 28.9 12.2 59.6 18.5 91.2 18.6h2.4c31.6-.2 62.3-6.4 91.2-18.6 28.3-12 53.7-29.1 75.5-50.9 13-13 24.4-27.3 34-42.8 5.2-8.4 9.9-17.1 14-26.1 1-2.2 1.9-4.3 2.9-6.5 12.4-29.3 18.7-60.4 18.7-92.4 0-32.3-6.2-63.4-18.6-92.6zm-30.3 180c-20.9-7.5-44.3-13.6-69.4-18.1 3.4-22.2 5.2-45.6 5.2-69.5 0-23.1-1.7-45.8-4.9-67.4 25.3-4.6 48.9-10.8 69.9-18.4.7 1.6 1.5 3.3 2.2 4.9 10.8 25.6 16.3 52.8 16.3 80.9 0 28.1-5.5 55.3-16.3 80.9-1 2.2-2 4.4-3 6.7zm-283.2-87.6c0-22.1 1.6-43.7 4.8-64.2 30 4.4 62.1 6.7 95 6.7 29.3 0 57.9-1.8 85.1-5.3 3 20.1 4.6 41.2 4.6 62.8 0 22.4-1.7 44.2-4.9 64.9-27-3.5-55.6-5.3-84.8-5.3-32.8 0-64.8 2.3-94.7 6.6-3.3-21-5.1-43.3-5.1-66.2zm175.6-191.5c24.7 10.5 47 25.4 66 44.5 10.7 10.7 20 22.3 28.1 34.8-18.5 6.4-39 11.6-61 15.6-5.6-24.7-13.4-47.5-23.2-67.5-5.7-11.7-12-22-18.7-31 2.9 1.2 5.9 2.4 8.8 3.6zm-47.9-2.4c11.4 9.8 22.1 24.6 31.2 43 8.5 17.3 15.4 37.2 20.5 58.9-25.3 3.2-52.1 4.8-79.5 4.8-31 0-61.2-2.1-89.4-6.2 5-21.1 11.8-40.5 20.2-57.5 9-18.4 19.8-33.2 31.2-43 10.7-9.2 21.8-13.9 33-13.9 11 0 22.1 4.7 32.8 13.9zm-179.9 47c19.1-19.1 41.3-34.1 66-44.5 2.9-1.2 5.9-2.4 8.9-3.5-6.7 9-13 19.4-18.7 31-9.5 19.4-17.2 41.6-22.8 65.6-21.6-4.4-41.6-10-59.5-16.8 7.6-11.4 16.3-22 26.1-31.8zm-44.5 227.7c-10.8-25.6-16.3-52.8-16.3-80.9 0-28.1 5.5-55.3 16.3-80.9 1.2-2.8 2.4-5.5 3.7-8.2.3.1.7.3 1.1.4 20.2 7.9 43 14.4 67.6 19.3-3.4 22.2-5.2 45.5-5.2 69.3 0 24.6 1.9 48.6 5.5 71.3-24.7 5-47.6 11.5-67.9 19.4-.1 0-.1.1-.2.1-1.7-3.1-3.2-6.4-4.6-9.8zm110.6 110.6c-24.7-10.5-47-25.4-66-44.5-9.3-9.3-17.7-19.4-25-30.1 17.7-6.6 37.5-12.1 58.8-16.4 5.5 23.2 13 44.7 22.3 63.6 5.7 11.7 12 22 18.7 31-2.9-1.2-5.9-2.3-8.8-3.6zm47.9 2.4c-11.4-9.8-22.1-24.6-31.2-43-8.1-16.4-14.7-35.2-19.7-55.5 28-4 58-6.1 88.9-6.1 27.3 0 53.9 1.6 79 4.8-5 20.8-11.7 40-20 56.8-9 18.4-19.8 33.2-31.2 43-10.7 9.2-21.8 13.9-33 13.9-11 0-22.1-4.7-32.8-13.9zm179.9-46.9c-19.1 19.1-41.3 34.1-66 44.5-2.9 1.2-5.9 2.4-8.9 3.5 6.7-9 13-19.4 18.7-31 9.5-19.4 17.2-41.5 22.8-65.4 21.7 3.9 42 9.1 60.4 15.3-7.9 11.9-16.9 22.9-27 33.1z" class="st2"/><ellipse cx="1545.4" cy="1665" class="st2" rx="1144" ry="96.6"/><path d="M1158 493.2c-1.1 16 5.1 32.4.7 47.7-5.9 20.4-28.1 31.7-37.6 50.6-9.9 19.9-4.7 46-18.7 63.2-5 6.1-11.9 10.4-17.2 16.3-12.2 13.5-13.7 35.5-3.3 50.5 11.5 16.7 33.7 22.6 53.9 22.4 20.3-.1 40.4-4.9 60.7-3.9 20.6 1 40.7 7.9 61.4 7.2 28.5-.9 55.3-16.7 73.8-38.4s29.6-48.9 36.7-76.6c2.7-10.5 4.9-21.3 5.5-32.1 2.3-42.3-19.1-82.3-43.9-116.6-11.3-15.7-24.1-31.3-41.6-39.5-39.9-18.6-126.7-6-130.4 49.2z" class="st6"/><path d="M1356.1 1551.7s-7.2 71.6 7.4 79.7c26.5 14.7 75.3 28.7 71.2 41.3-4.1 12.6-121 13.1-124.3 1.6-3.2-11.5 9.9-46.7-4-115.3l49.7-7.3z" class="st7"/><path d="M1311.5 1648.6c-1.2 12.8-2.3 21.6-1.2 25.7 3.2 11.5 120.2 11 124.3-1.6 3-9.4-22.8-19.9-47.3-30.4-5.8 9.7-18.2 24.9-75.8 6.3z" class="st8"/><path d="M1136.7 1549.6s-19.3 69.3-6.3 79.8c23.6 19 69.3 41.1 63.1 52.9-6.2 11.7-121.5-7.7-122.8-19.6-1.2-11.9 17.7-44.4 15.7-114.3l50.3 1.2z" class="st7"/><path d="M1076.2 1637.5c-3.4 12.4-6 20.9-5.5 25.1 1.2 11.9 116.6 31.3 122.8 19.6 4.6-8.7-19.1-23.5-41.4-38-7.4 8.6-22.2 21.5-75.9-6.7z" class="st8"/><path d="M1400.8 731.4s24.6 32.9 45 32.9c20.5 0 90.1-87 90.1-87l16.4 26.4s-58.4 127.2-111.6 128.2c-53.2 1-93.2-58.4-92.1-61.4 1-3.1 34.8-39 34.8-39h17.4z" class="st7"/><path d="M1342.4 917.4s31.8 38.5 46.1 83.5-23.7 578.7-23.7 578.7h-63.5s-33.7-475.3-33.7-479.5c0-16.6-125 479.5-125 479.5h-63.4s34.3-580.9 113.9-662.3l74.5 4.6 74.8-4.5z" class="st8"/><path d="M1342.4 897.4v20s-37.9 36.9-149.2 0l-.3-20 97.8-6.1 51.7 6.1z" class="st5"/><path d="M1304.6 656.6s39.5-1.5 59.5 12.4c14.3 9.9 45.9 65.6 45.9 65.6l-36.3 30.9s8.7 33.6-25.1 50.5l-6.1 81.4s-63.5 36.9-149.5 0c0 0-16.4-152.5-31.7-139.2-15.4 13.3-24.6 25.1-24.6 25.1l-57.3-56.8s62.5-62.6 83.2-72.4c48.5-23 87.8-.9 87.8-.9l54.2 3.4z" style="fill:#2659db"/><path d="M1131.3 777.9s-33.3 38.8-29.4 49.6c3.8 10.7 62.6 99.3 70.5 116 7.9 16.8 5.6 26.8 5.6 26.8l-29.9 14.6s-1.6-23.7-8.1-30.7-105.6-109.1-103.3-141.3c2.3-32.2 47.8-81.5 47.8-81.5l46.8 46.5zM1321.9 531.7s4.3-8.5 8.9-5.8c11.5 7 1.3 19.2-5.5 22.4l-3.4-16.6z" class="st7"/><path d="M1244.4 443.3c-32.1 5.8-55.2 35.2-53.2 67.8.7 10.7 3.8 20.6 8.9 29.1 11.5 21.5 20.9 38.7 31.6 50.9 10.8 12.3 16.9 28 16.4 44.4l-.5 16.5c39.7 14.5 55.2 4.5 55.2 4.5l-5.5-48.2c40.1-9.5 26.1-83.8 23.6-106h-.1c-.1-.8-.1-1.7-.2-2.5-4.2-37.1-38.9-63.3-76.2-56.5z" class="st7"/><path d="M1246.8 509.1c-9.8 14.7-20.4 29.2-27.1 45.6-.7 1.8-5.9 15.2-3.9 16.5-11.4-6.8-19.4-17.9-26.5-29.1-12.1-19.5-12.1-44.5-2.3-65 9.7-20.2 28.4-32.3 50.1-36.5 23.2-4.6 49.7.4 66.3 18.3 15.6 16.8 18.8 40 22.9 61.6-4.5-24.3-39.5-38.8-60.2-45.1.6.2-12.2 22.8-12.9 23.9-2.1 3.3-4.3 6.5-6.4 9.8z" class="st6"/><path d="M1221.9 556c-1.3-2-3.3-3.4-5.5-4-4.7-1.3-12.7-2.4-17.5 3.7-7 8.8 11.3 28 25.9 15.8-.1 0 3.9-5-2.9-15.5z" class="st7"/><path d="M1311.3 533.6c-.1-3.1-2.6-5.6-5.8-5.6-3.1.1-5.6 2.6-5.6 5.8.1 3.1 2.6 5.6 5.8 5.6 3.1-.1 5.6-2.7 5.6-5.8zM1258.8 545.6c-.1-3.1-2.6-5.6-5.8-5.6-3.1.1-5.6 2.6-5.6 5.8.1 3.1 2.6 5.6 5.8 5.6 3.1-.1 5.6-2.7 5.6-5.8z" class="st5"/><path d="M1305.6 573.3s-7.5-5.4-10.3-4.5c-2.9.9-4.3 4.4-4.3 4.4s-1.8-3.4-5.4-3.4c-3.5.1-10.8 9.8-10.8 9.8s10.5 15.2 21.1 12.9c10.8-2.3 9.6-18.5 9.6-18.5l.1-.7z" style="fill:#fa7267"/><path d="M1241.1 539.1c-.7.1-1.4-.1-1.9-.6-1-.9-1-2.4-.1-3.3.3-.3 6.7-7 17.2-7.9 1.3-.1 2.4.9 2.5 2.2.1 1.3-1 2.5-2.2 2.5-8.8.7-14.1 6.3-14.1 6.4-.4.4-.9.7-1.4.7zM1295.2 522.4c-.7-.1-1.3-.4-1.7-1-.7-1.1-.4-2.5.7-3.3.3-.2 8.1-5.2 18.6-3.6 1.3.2 2.2 1.4 2 2.7-.2 1.3-1.5 2.2-2.7 2-8.7-1.4-15.2 2.8-15.2 2.9-.7.3-1.2.4-1.7.3z" class="st5"/><path d="M1286.6 564.2c6.5-1.8 8.2-7 8.1-9.9 0-.5-.2-1-.6-1.3-6.8-6.6-7.4-17.3-7.4-17.5-.1-1.1-1-1.9-2.1-1.9s-1.9 1-1.9 2.1c0 .5.6 11.7 8 19.5-.2 1.6-1.4 5.3-7.8 5.7-1.1.1-1.9 1-1.9 2.1.1 1.1 1 1.9 2.1 1.9 1.3-.2 2.5-.4 3.5-.7z" style="fill:#ea6868"/><path d="m1305.6 573.3-30.9 6.4s11.6 7.6 19.9 6.3c8.4-1.2 11-12.7 11-12.7z" style="fill:#fafafc"/><path d="M1161.4 926.1s26 36.5 23.4 45c-2.6 8.5-13.8 32.3-14.6 36.5-.9 4.2-.3 26.8-2.6 30.3-2.3 3.5-7.8-24.2-7.8-24.2s1.4 24.3-2.8 25.9c-4.2 1.5-8-24.4-8-24.4s2.2 24.6-1.9 24.7c-4.2.1-6.6-23.7-6.6-23.7s1.4 19.1-1.9 19.2c-3.3 0-10.6-31.3-4.2-42.3 15.2-26 10.8-39.9 10.8-39.9l16.2-27.1z" class="st7"/><path d="M1178.1 952.4s12.9 21.7 13.1 29.9c.2 8.3 2.5 25-1 25s-8.4-23.3-10.9-24.2c-2.6-1-2.6-11.5-2.6-11.5l1.4-19.2z" class="st7"/><path d="M1244.7 804.8c-28.8 0-40.8-28.8-40.9-29.1-.2-.5 0-1.2.6-1.4.5-.2 1.2 0 1.4.6.1.3 11.6 27.7 38.9 27.7 27.4 0 38-19.9 38.1-20.2.3-.5.9-.7 1.4-.5.5.3.7.9.5 1.4-.1.4-11.3 21.5-40 21.5zM1373.7 766.5c-.5 0-1-.4-1.1-.9 0-.2-2.5-19.4-17.4-33.4-.4-.4-.4-1.1 0-1.5.4-.4 1.1-.4 1.5 0 15.5 14.5 17.9 33.9 18 34.7.1.6-.3 1.1-.9 1.2 0-.1-.1-.1-.1-.1z" class="st3"/><path d="M1289.9 942c-10.4 0-18.8-8.4-18.8-18.8s8.4-18.8 18.8-18.8 18.8 8.4 18.8 18.8-8.5 18.8-18.8 18.8zm0-29c-5.7 0-10.2 4.6-10.2 10.2 0 5.7 4.6 10.3 10.2 10.3 5.7 0 10.2-4.6 10.2-10.3 0-5.6-4.6-10.2-10.2-10.2z" class="st2"/><path d="m2132.4 745.9-390.8-44.8-391.6-44.9c-127.5 930.2 282.4 994.4 282.4 994.4.1 0 .3-.1.4-.1 456.9-105.5 499.6-904.6 499.6-904.6z" class="st0"/><path d="M1637.4 1580.8c-.1 0-.3.1-.4.1 0 0-358.3-56.2-246.9-869.2L2074 790c.1 0-37.3 698.4-436.6 790.8z" style="fill:#ff7c76"/><path d="m1732.5 750.8-95.1 829.9c-.1 0-.3.1-.4.1 0 0-358.3-56.2-246.9-869.2l342.4 39.2z" style="fill:#f96058"/><path d="M1563.4 668c-.1-.3-.2-.6-.4-.9-.7-1.6-1.7-2.6-2.8-3.2-4.1-2.5-9.7.8-9.7.8-1.5-5.6-13.9-4.4-13.9-4.4-3.9-3.3-12.1 1-12.1 1s-3.8-4.1-8.4-1.1c-4.6 3-4.8 30.5 0 30s5.6-20 7.1-19.8c1.5.2-1.1 22.7 2.7 22.4 3.7-.2 8.5-21 8.9-23-.4 2.1-4.5 26.6.9 26 1.5-.2 3.2-2.1 4.8-4.8.8-1.3 1.5-2.8 2.2-4.4 3.2-7 5.7-15.5 5.8-15.7.1 0-.5 4.1-.8 8.9-.2 2.4-.3 4.9-.2 7.3 0 4.1.5 7.5 2 7.9 3.8 1 13.9-27 13.9-27z" class="st7"/><path d="m1669.4 1301.1-172.5-325.7 87.9 11.2 99.6 175.6L1869.1 940l98.9 6.4z" class="st1"/></svg>
