<?xml version="1.0" standalone="no"?><svg xmlns="http://www.w3.org/2000/svg" viewBox="0 0 1440 320"><path fill="#04486cf0" fill-opacity="1" d="M0,224L0,96L45,96L45,256L90,256L90,320L135,320L135,96L180,96L180,320L225,320L225,160L270,160L270,288L315,288L315,0L360,0L360,128L405,128L405,0L450,0L450,32L495,32L495,128L540,128L540,160L585,160L585,224L630,224L630,224L675,224L675,160L720,160L720,96L765,96L765,32L810,32L810,288L855,288L855,96L900,96L900,320L945,320L945,96L990,96L990,96L1035,96L1035,128L1080,128L1080,64L1125,64L1125,64L1170,64L1170,64L1215,64L1215,160L1260,160L1260,288L1305,288L1305,224L1350,224L1350,192L1395,192L1395,32L1440,32L1440,320L1395,320L1395,320L1350,320L1350,320L1305,320L1305,320L1260,320L1260,320L1215,320L1215,320L1170,320L1170,320L1125,320L1125,320L1080,320L1080,320L1035,320L1035,320L990,320L990,320L945,320L945,320L900,320L900,320L855,320L855,320L810,320L810,320L765,320L765,320L720,320L720,320L675,320L675,320L630,320L630,320L585,320L585,320L540,320L540,320L495,320L495,320L450,320L450,320L405,320L405,320L360,320L360,320L315,320L315,320L270,320L270,320L225,320L225,320L180,320L180,320L135,320L135,320L90,320L90,320L45,320L45,320L0,320L0,320Z"></path></svg>