<?xml version="1.0" standalone="no"?><svg xmlns="http://www.w3.org/2000/svg" viewBox="0 0 1440 320"><path fill="#0099ff" fill-opacity="1" d="M0,288L0,32L40,32L40,224L80,224L80,128L120,128L120,320L160,320L160,0L200,0L200,64L240,64L240,256L280,256L280,192L320,192L320,96L360,96L360,64L400,64L400,0L440,0L440,64L480,64L480,128L520,128L520,192L560,192L560,32L600,32L600,224L640,224L640,0L680,0L680,128L720,128L720,96L760,96L760,32L800,32L800,192L840,192L840,192L880,192L880,320L920,320L920,128L960,128L960,64L1000,64L1000,96L1040,96L1040,192L1080,192L1080,64L1120,64L1120,160L1160,160L1160,256L1200,256L1200,64L1240,64L1240,128L1280,128L1280,288L1320,288L1320,96L1360,96L1360,64L1400,64L1400,288L1440,288L1440,320L1400,320L1400,320L1360,320L1360,320L1320,320L1320,320L1280,320L1280,320L1240,320L1240,320L1200,320L1200,320L1160,320L1160,320L1120,320L1120,320L1080,320L1080,320L1040,320L1040,320L1000,320L1000,320L960,320L960,320L920,320L920,320L880,320L880,320L840,320L840,320L800,320L800,320L760,320L760,320L720,320L720,320L680,320L680,320L640,320L640,320L600,320L600,320L560,320L560,320L520,320L520,320L480,320L480,320L440,320L440,320L400,320L400,320L360,320L360,320L320,320L320,320L280,320L280,320L240,320L240,320L200,320L200,320L160,320L160,320L120,320L120,320L80,320L80,320L40,320L40,320L0,320L0,320Z"></path></svg>